<?xml version="1.0" encoding="utf-8" standalone="no"?>
<!DOCTYPE svg PUBLIC "-//W3C//DTD SVG 1.1//EN"
  "http://www.w3.org/Graphics/SVG/1.1/DTD/svg11.dtd">
<svg xmlns:xlink="http://www.w3.org/1999/xlink" width="864pt" height="360pt" viewBox="0 0 864 360" xmlns="http://www.w3.org/2000/svg" version="1.1">
 <metadata>
  <rdf:RDF xmlns:dc="http://purl.org/dc/elements/1.1/" xmlns:cc="http://creativecommons.org/ns#" xmlns:rdf="http://www.w3.org/1999/02/22-rdf-syntax-ns#">
   <cc:Work>
    <dc:type rdf:resource="http://purl.org/dc/dcmitype/StillImage"/>
    <dc:date>2026-03-18T11:02:46.492706</dc:date>
    <dc:format>image/svg+xml</dc:format>
    <dc:creator>
     <cc:Agent>
      <dc:title>Matplotlib v3.10.8, https://matplotlib.org/</dc:title>
     </cc:Agent>
    </dc:creator>
   </cc:Work>
  </rdf:RDF>
 </metadata>
 <defs>
  <style type="text/css">*{stroke-linejoin: round; stroke-linecap: butt}</style>
 </defs>
 <g id="figure_1">
  <g id="patch_1">
   <path d="M 0 360 
L 864 360 
L 864 0 
L 0 0 
z
"/>
  </g>
  <g id="axes_1">
   <g id="patch_2">
    <path d="M 52.94 318.04 
L 843.93 318.04 
L 843.93 37.968 
L 52.94 37.968 
z
" style="fill: #161616"/>
   </g>
   <g id="FillBetweenPolyCollection_1">
    <defs>
     <path id="m01f8cabc19" d="M 61.569018 -16.498909 
L 61.569018 -159.743007 
L 77.552113 -124.978433 
L 93.506181 -122.961915 
L 109.483132 -190.000967 
L 125.445547 -229.109203 
L 141.40994 -232.811245 
L 157.380284 -234.0843 
L 173.339306 -230.285505 
L 189.309307 -199.635444 
L 205.275028 -179.393877 
L 221.24067 -204.019844 
L 237.204183 -204.26427 
L 253.171205 -213.027978 
L 269.137345 -258.007541 
L 285.101288 -247.828197 
L 301.070758 -264.34226 
L 317.035009 -233.00475 
L 333.00132 -226.929733 
L 348.967884 -217.137398 
L 364.931691 -189.975506 
L 380.900289 -178.731888 
L 396.865708 -166.627686 
L 412.830631 -169.280731 
L 428.795838 -209.570361 
L 444.762143 -222.290722 
L 460.72818 -211.973888 
L 476.694606 -221.934267 
L 492.659874 -224.551667 
L 508.62651 -235.886945 
L 524.592343 -249.686856 
L 540.558086 -238.601097 
L 556.523893 -208.134356 
L 572.4901 -237.190553 
L 588.455585 -254.99804 
L 604.421608 -235.382815 
L 620.387608 -221.781501 
L 636.353662 -222.540241 
L 652.31956 -248.84664 
L 668.285468 -246.575511 
L 684.251393 -260.889736 
L 700.217226 -279.97537 
L 716.183252 -293.79565 
L 732.149079 -241.091192 
L 748.115001 -215.390767 
L 764.080876 -203.291656 
L 780.04686 -170.772751 
L 796.012716 -157.583906 
L 811.97858 -169.596449 
L 827.944543 -196.890738 
L 843.910399 -224.734987 
L 843.910399 -16.498909 
L 843.910399 -16.498909 
L 827.944543 -16.498909 
L 811.97858 -16.498909 
L 796.012716 -16.498909 
L 780.04686 -16.498909 
L 764.080876 -16.498909 
L 748.115001 -16.498909 
L 732.149079 -16.498909 
L 716.183252 -16.498909 
L 700.217226 -16.498909 
L 684.251393 -16.498909 
L 668.285468 -16.498909 
L 652.31956 -16.498909 
L 636.353662 -16.498909 
L 620.387608 -16.498909 
L 604.421608 -16.498909 
L 588.455585 -16.498909 
L 572.4901 -16.498909 
L 556.523893 -16.498909 
L 540.558086 -16.498909 
L 524.592343 -16.498909 
L 508.62651 -16.498909 
L 492.659874 -16.498909 
L 476.694606 -16.498909 
L 460.72818 -16.498909 
L 444.762143 -16.498909 
L 428.795838 -16.498909 
L 412.830631 -16.498909 
L 396.865708 -16.498909 
L 380.900289 -16.498909 
L 364.931691 -16.498909 
L 348.967884 -16.498909 
L 333.00132 -16.498909 
L 317.035009 -16.498909 
L 301.070758 -16.498909 
L 285.101288 -16.498909 
L 269.137345 -16.498909 
L 253.171205 -16.498909 
L 237.204183 -16.498909 
L 221.24067 -16.498909 
L 205.275028 -16.498909 
L 189.309307 -16.498909 
L 173.339306 -16.498909 
L 157.380284 -16.498909 
L 141.40994 -16.498909 
L 125.445547 -16.498909 
L 109.483132 -16.498909 
L 93.506181 -16.498909 
L 77.552113 -16.498909 
L 61.569018 -16.498909 
z
" style="stroke: #007aff; stroke-opacity: 0.15"/>
    </defs>
    <g clip-path="url(#pd42ac94385)">
     <use xlink:href="#m01f8cabc19" x="0" y="360" style="fill: #007aff; fill-opacity: 0.15; stroke: #007aff; stroke-opacity: 0.15"/>
    </g>
   </g>
   <g id="patch_3">
    <path d="M 118.119234 318.04 
L 205.293519 318.04 
L 205.293519 37.968 
L 118.119234 37.968 
z
" clip-path="url(#pd42ac94385)" style="fill: #ff3b30; opacity: 0.08; stroke: #ff3b30; stroke-linejoin: miter"/>
   </g>
   <g id="matplotlib.axis_1">
    <g id="xtick_1">
     <g id="line2d_1">
      <path d="M 52.94 318.04 
L 52.94 37.968 
" clip-path="url(#pd42ac94385)" style="fill: none; stroke: #2c2c2e; stroke-width: 0.5; stroke-linecap: square"/>
     </g>
     <g id="line2d_2">
      <defs>
       <path id="mcd128ff3f2" d="M 0 0 
L 0 3.5 
" style="stroke: #8e8e93; stroke-width: 0.8"/>
      </defs>
      <g>
       <use xlink:href="#mcd128ff3f2" x="52.94" y="318.04" style="fill: #8e8e93; stroke: #8e8e93; stroke-width: 0.8"/>
      </g>
     </g>
     <g id="text_1">
      <!-- 50 -->
      <g style="fill: #8e8e93" transform="translate(46.5775 332.638438) scale(0.1 -0.1)">
       <defs>
        <path id="DejaVuSans-35" d="M 691 4666 
L 3169 4666 
L 3169 4134 
L 1269 4134 
L 1269 2991 
Q 1406 3038 1543 3061 
Q 1681 3084 1819 3084 
Q 2600 3084 3056 2656 
Q 3513 2228 3513 1497 
Q 3513 744 3044 326 
Q 2575 -91 1722 -91 
Q 1428 -91 1123 -41 
Q 819 9 494 109 
L 494 744 
Q 775 591 1075 516 
Q 1375 441 1709 441 
Q 2250 441 2565 725 
Q 2881 1009 2881 1497 
Q 2881 1984 2565 2268 
Q 2250 2553 1709 2553 
Q 1456 2553 1204 2497 
Q 953 2441 691 2322 
L 691 4666 
z
" transform="scale(0.015625)"/>
        <path id="DejaVuSans-30" d="M 2034 4250 
Q 1547 4250 1301 3770 
Q 1056 3291 1056 2328 
Q 1056 1369 1301 889 
Q 1547 409 2034 409 
Q 2525 409 2770 889 
Q 3016 1369 3016 2328 
Q 3016 3291 2770 3770 
Q 2525 4250 2034 4250 
z
M 2034 4750 
Q 2819 4750 3233 4129 
Q 3647 3509 3647 2328 
Q 3647 1150 3233 529 
Q 2819 -91 2034 -91 
Q 1250 -91 836 529 
Q 422 1150 422 2328 
Q 422 3509 836 4129 
Q 1250 4750 2034 4750 
z
" transform="scale(0.015625)"/>
       </defs>
       <use xlink:href="#DejaVuSans-35"/>
       <use xlink:href="#DejaVuSans-30" transform="translate(63.623047 0)"/>
      </g>
     </g>
    </g>
    <g id="xtick_2">
     <g id="line2d_3">
      <path d="M 149.064368 318.04 
L 149.064368 37.968 
" clip-path="url(#pd42ac94385)" style="fill: none; stroke: #2c2c2e; stroke-width: 0.5; stroke-linecap: square"/>
     </g>
     <g id="line2d_4">
      <g>
       <use xlink:href="#mcd128ff3f2" x="149.064368" y="318.04" style="fill: #8e8e93; stroke: #8e8e93; stroke-width: 0.8"/>
      </g>
     </g>
     <g id="text_2">
      <!-- 100 -->
      <g style="fill: #8e8e93" transform="translate(139.520618 332.638438) scale(0.1 -0.1)">
       <defs>
        <path id="DejaVuSans-31" d="M 794 531 
L 1825 531 
L 1825 4091 
L 703 3866 
L 703 4441 
L 1819 4666 
L 2450 4666 
L 2450 531 
L 3481 531 
L 3481 0 
L 794 0 
L 794 531 
z
" transform="scale(0.015625)"/>
       </defs>
       <use xlink:href="#DejaVuSans-31"/>
       <use xlink:href="#DejaVuSans-30" transform="translate(63.623047 0)"/>
       <use xlink:href="#DejaVuSans-30" transform="translate(127.246094 0)"/>
      </g>
     </g>
    </g>
    <g id="xtick_3">
     <g id="line2d_5">
      <path d="M 245.188737 318.04 
L 245.188737 37.968 
" clip-path="url(#pd42ac94385)" style="fill: none; stroke: #2c2c2e; stroke-width: 0.5; stroke-linecap: square"/>
     </g>
     <g id="line2d_6">
      <g>
       <use xlink:href="#mcd128ff3f2" x="245.188737" y="318.04" style="fill: #8e8e93; stroke: #8e8e93; stroke-width: 0.8"/>
      </g>
     </g>
     <g id="text_3">
      <!-- 200 -->
      <g style="fill: #8e8e93" transform="translate(235.644987 332.638438) scale(0.1 -0.1)">
       <defs>
        <path id="DejaVuSans-32" d="M 1228 531 
L 3431 531 
L 3431 0 
L 469 0 
L 469 531 
Q 828 903 1448 1529 
Q 2069 2156 2228 2338 
Q 2531 2678 2651 2914 
Q 2772 3150 2772 3378 
Q 2772 3750 2511 3984 
Q 2250 4219 1831 4219 
Q 1534 4219 1204 4116 
Q 875 4013 500 3803 
L 500 4441 
Q 881 4594 1212 4672 
Q 1544 4750 1819 4750 
Q 2544 4750 2975 4387 
Q 3406 4025 3406 3419 
Q 3406 3131 3298 2873 
Q 3191 2616 2906 2266 
Q 2828 2175 2409 1742 
Q 1991 1309 1228 531 
z
" transform="scale(0.015625)"/>
       </defs>
       <use xlink:href="#DejaVuSans-32"/>
       <use xlink:href="#DejaVuSans-30" transform="translate(63.623047 0)"/>
       <use xlink:href="#DejaVuSans-30" transform="translate(127.246094 0)"/>
      </g>
     </g>
    </g>
    <g id="xtick_4">
     <g id="line2d_7">
      <path d="M 372.25824 318.04 
L 372.25824 37.968 
" clip-path="url(#pd42ac94385)" style="fill: none; stroke: #2c2c2e; stroke-width: 0.5; stroke-linecap: square"/>
     </g>
     <g id="line2d_8">
      <g>
       <use xlink:href="#mcd128ff3f2" x="372.25824" y="318.04" style="fill: #8e8e93; stroke: #8e8e93; stroke-width: 0.8"/>
      </g>
     </g>
     <g id="text_4">
      <!-- 500 -->
      <g style="fill: #8e8e93" transform="translate(362.71449 332.638438) scale(0.1 -0.1)">
       <use xlink:href="#DejaVuSans-35"/>
       <use xlink:href="#DejaVuSans-30" transform="translate(63.623047 0)"/>
       <use xlink:href="#DejaVuSans-30" transform="translate(127.246094 0)"/>
      </g>
     </g>
    </g>
    <g id="xtick_5">
     <g id="line2d_9">
      <path d="M 468.382609 318.04 
L 468.382609 37.968 
" clip-path="url(#pd42ac94385)" style="fill: none; stroke: #2c2c2e; stroke-width: 0.5; stroke-linecap: square"/>
     </g>
     <g id="line2d_10">
      <g>
       <use xlink:href="#mcd128ff3f2" x="468.382609" y="318.04" style="fill: #8e8e93; stroke: #8e8e93; stroke-width: 0.8"/>
      </g>
     </g>
     <g id="text_5">
      <!-- 1k -->
      <g style="fill: #8e8e93" transform="translate(462.306046 332.638438) scale(0.1 -0.1)">
       <defs>
        <path id="DejaVuSans-6b" d="M 581 4863 
L 1159 4863 
L 1159 1991 
L 2875 3500 
L 3609 3500 
L 1753 1863 
L 3688 0 
L 2938 0 
L 1159 1709 
L 1159 0 
L 581 0 
L 581 4863 
z
" transform="scale(0.015625)"/>
       </defs>
       <use xlink:href="#DejaVuSans-31"/>
       <use xlink:href="#DejaVuSans-6b" transform="translate(63.623047 0)"/>
      </g>
     </g>
    </g>
    <g id="xtick_6">
     <g id="line2d_11">
      <path d="M 564.506977 318.04 
L 564.506977 37.968 
" clip-path="url(#pd42ac94385)" style="fill: none; stroke: #2c2c2e; stroke-width: 0.5; stroke-linecap: square"/>
     </g>
     <g id="line2d_12">
      <g>
       <use xlink:href="#mcd128ff3f2" x="564.506977" y="318.04" style="fill: #8e8e93; stroke: #8e8e93; stroke-width: 0.8"/>
      </g>
     </g>
     <g id="text_6">
      <!-- 2k -->
      <g style="fill: #8e8e93" transform="translate(558.430415 332.638438) scale(0.1 -0.1)">
       <use xlink:href="#DejaVuSans-32"/>
       <use xlink:href="#DejaVuSans-6b" transform="translate(63.623047 0)"/>
      </g>
     </g>
    </g>
    <g id="xtick_7">
     <g id="line2d_13">
      <path d="M 691.576481 318.04 
L 691.576481 37.968 
" clip-path="url(#pd42ac94385)" style="fill: none; stroke: #2c2c2e; stroke-width: 0.5; stroke-linecap: square"/>
     </g>
     <g id="line2d_14">
      <g>
       <use xlink:href="#mcd128ff3f2" x="691.576481" y="318.04" style="fill: #8e8e93; stroke: #8e8e93; stroke-width: 0.8"/>
      </g>
     </g>
     <g id="text_7">
      <!-- 5k -->
      <g style="fill: #8e8e93" transform="translate(685.499918 332.638438) scale(0.1 -0.1)">
       <use xlink:href="#DejaVuSans-35"/>
       <use xlink:href="#DejaVuSans-6b" transform="translate(63.623047 0)"/>
      </g>
     </g>
    </g>
    <g id="xtick_8">
     <g id="line2d_15">
      <path d="M 787.700849 318.04 
L 787.700849 37.968 
" clip-path="url(#pd42ac94385)" style="fill: none; stroke: #2c2c2e; stroke-width: 0.5; stroke-linecap: square"/>
     </g>
     <g id="line2d_16">
      <g>
       <use xlink:href="#mcd128ff3f2" x="787.700849" y="318.04" style="fill: #8e8e93; stroke: #8e8e93; stroke-width: 0.8"/>
      </g>
     </g>
     <g id="text_8">
      <!-- 10k -->
      <g style="fill: #8e8e93" transform="translate(778.443037 332.638438) scale(0.1 -0.1)">
       <use xlink:href="#DejaVuSans-31"/>
       <use xlink:href="#DejaVuSans-30" transform="translate(63.623047 0)"/>
       <use xlink:href="#DejaVuSans-6b" transform="translate(127.246094 0)"/>
      </g>
     </g>
    </g>
    <g id="xtick_9">
     <g id="line2d_17">
      <path d="M 843.93 318.04 
L 843.93 37.968 
" clip-path="url(#pd42ac94385)" style="fill: none; stroke: #2c2c2e; stroke-width: 0.5; stroke-linecap: square"/>
     </g>
     <g id="line2d_18">
      <g>
       <use xlink:href="#mcd128ff3f2" x="843.93" y="318.04" style="fill: #8e8e93; stroke: #8e8e93; stroke-width: 0.8"/>
      </g>
     </g>
     <g id="text_9">
      <!-- 15k -->
      <g style="fill: #8e8e93" transform="translate(834.672188 332.638438) scale(0.1 -0.1)">
       <use xlink:href="#DejaVuSans-31"/>
       <use xlink:href="#DejaVuSans-35" transform="translate(63.623047 0)"/>
       <use xlink:href="#DejaVuSans-6b" transform="translate(127.246094 0)"/>
      </g>
     </g>
    </g>
    <g id="xtick_10">
     <g id="line2d_19">
      <path d="M 78.224016 318.04 
L 78.224016 37.968 
" clip-path="url(#pd42ac94385)" style="fill: none; stroke: #1a1a1a; stroke-width: 0.3; stroke-linecap: square"/>
     </g>
     <g id="line2d_20">
      <defs>
       <path id="md04d065601" d="M 0 0 
L 0 2 
" style="stroke: #000000; stroke-width: 0.6"/>
      </defs>
      <g>
       <use xlink:href="#md04d065601" x="78.224016" y="318.04" style="stroke: #000000; stroke-width: 0.6"/>
      </g>
     </g>
    </g>
    <g id="xtick_11">
     <g id="line2d_21">
      <path d="M 99.601347 318.04 
L 99.601347 37.968 
" clip-path="url(#pd42ac94385)" style="fill: none; stroke: #1a1a1a; stroke-width: 0.3; stroke-linecap: square"/>
     </g>
     <g id="line2d_22">
      <g>
       <use xlink:href="#md04d065601" x="99.601347" y="318.04" style="stroke: #000000; stroke-width: 0.6"/>
      </g>
     </g>
    </g>
    <g id="xtick_12">
     <g id="line2d_23">
      <path d="M 118.119234 318.04 
L 118.119234 37.968 
" clip-path="url(#pd42ac94385)" style="fill: none; stroke: #1a1a1a; stroke-width: 0.3; stroke-linecap: square"/>
     </g>
     <g id="line2d_24">
      <g>
       <use xlink:href="#md04d065601" x="118.119234" y="318.04" style="stroke: #000000; stroke-width: 0.6"/>
      </g>
     </g>
    </g>
    <g id="xtick_13">
     <g id="line2d_25">
      <path d="M 134.453167 318.04 
L 134.453167 37.968 
" clip-path="url(#pd42ac94385)" style="fill: none; stroke: #1a1a1a; stroke-width: 0.3; stroke-linecap: square"/>
     </g>
     <g id="line2d_26">
      <g>
       <use xlink:href="#md04d065601" x="134.453167" y="318.04" style="stroke: #000000; stroke-width: 0.6"/>
      </g>
     </g>
    </g>
    <g id="xtick_14">
     <g id="line2d_27">
      <path d="M 301.417888 318.04 
L 301.417888 37.968 
" clip-path="url(#pd42ac94385)" style="fill: none; stroke: #1a1a1a; stroke-width: 0.3; stroke-linecap: square"/>
     </g>
     <g id="line2d_28">
      <g>
       <use xlink:href="#md04d065601" x="301.417888" y="318.04" style="stroke: #000000; stroke-width: 0.6"/>
      </g>
     </g>
    </g>
    <g id="xtick_15">
     <g id="line2d_29">
      <path d="M 341.313105 318.04 
L 341.313105 37.968 
" clip-path="url(#pd42ac94385)" style="fill: none; stroke: #1a1a1a; stroke-width: 0.3; stroke-linecap: square"/>
     </g>
     <g id="line2d_30">
      <g>
       <use xlink:href="#md04d065601" x="341.313105" y="318.04" style="stroke: #000000; stroke-width: 0.6"/>
      </g>
     </g>
    </g>
    <g id="xtick_16">
     <g id="line2d_31">
      <path d="M 397.542256 318.04 
L 397.542256 37.968 
" clip-path="url(#pd42ac94385)" style="fill: none; stroke: #1a1a1a; stroke-width: 0.3; stroke-linecap: square"/>
     </g>
     <g id="line2d_32">
      <g>
       <use xlink:href="#md04d065601" x="397.542256" y="318.04" style="stroke: #000000; stroke-width: 0.6"/>
      </g>
     </g>
    </g>
    <g id="xtick_17">
     <g id="line2d_33">
      <path d="M 418.919587 318.04 
L 418.919587 37.968 
" clip-path="url(#pd42ac94385)" style="fill: none; stroke: #1a1a1a; stroke-width: 0.3; stroke-linecap: square"/>
     </g>
     <g id="line2d_34">
      <g>
       <use xlink:href="#md04d065601" x="418.919587" y="318.04" style="stroke: #000000; stroke-width: 0.6"/>
      </g>
     </g>
    </g>
    <g id="xtick_18">
     <g id="line2d_35">
      <path d="M 437.437474 318.04 
L 437.437474 37.968 
" clip-path="url(#pd42ac94385)" style="fill: none; stroke: #1a1a1a; stroke-width: 0.3; stroke-linecap: square"/>
     </g>
     <g id="line2d_36">
      <g>
       <use xlink:href="#md04d065601" x="437.437474" y="318.04" style="stroke: #000000; stroke-width: 0.6"/>
      </g>
     </g>
    </g>
    <g id="xtick_19">
     <g id="line2d_37">
      <path d="M 453.771407 318.04 
L 453.771407 37.968 
" clip-path="url(#pd42ac94385)" style="fill: none; stroke: #1a1a1a; stroke-width: 0.3; stroke-linecap: square"/>
     </g>
     <g id="line2d_38">
      <g>
       <use xlink:href="#md04d065601" x="453.771407" y="318.04" style="stroke: #000000; stroke-width: 0.6"/>
      </g>
     </g>
    </g>
    <g id="xtick_20">
     <g id="line2d_39">
      <path d="M 620.736128 318.04 
L 620.736128 37.968 
" clip-path="url(#pd42ac94385)" style="fill: none; stroke: #1a1a1a; stroke-width: 0.3; stroke-linecap: square"/>
     </g>
     <g id="line2d_40">
      <g>
       <use xlink:href="#md04d065601" x="620.736128" y="318.04" style="stroke: #000000; stroke-width: 0.6"/>
      </g>
     </g>
    </g>
    <g id="xtick_21">
     <g id="line2d_41">
      <path d="M 660.631346 318.04 
L 660.631346 37.968 
" clip-path="url(#pd42ac94385)" style="fill: none; stroke: #1a1a1a; stroke-width: 0.3; stroke-linecap: square"/>
     </g>
     <g id="line2d_42">
      <g>
       <use xlink:href="#md04d065601" x="660.631346" y="318.04" style="stroke: #000000; stroke-width: 0.6"/>
      </g>
     </g>
    </g>
    <g id="xtick_22">
     <g id="line2d_43">
      <path d="M 716.860497 318.04 
L 716.860497 37.968 
" clip-path="url(#pd42ac94385)" style="fill: none; stroke: #1a1a1a; stroke-width: 0.3; stroke-linecap: square"/>
     </g>
     <g id="line2d_44">
      <g>
       <use xlink:href="#md04d065601" x="716.860497" y="318.04" style="stroke: #000000; stroke-width: 0.6"/>
      </g>
     </g>
    </g>
    <g id="xtick_23">
     <g id="line2d_45">
      <path d="M 738.237828 318.04 
L 738.237828 37.968 
" clip-path="url(#pd42ac94385)" style="fill: none; stroke: #1a1a1a; stroke-width: 0.3; stroke-linecap: square"/>
     </g>
     <g id="line2d_46">
      <g>
       <use xlink:href="#md04d065601" x="738.237828" y="318.04" style="stroke: #000000; stroke-width: 0.6"/>
      </g>
     </g>
    </g>
    <g id="xtick_24">
     <g id="line2d_47">
      <path d="M 756.755714 318.04 
L 756.755714 37.968 
" clip-path="url(#pd42ac94385)" style="fill: none; stroke: #1a1a1a; stroke-width: 0.3; stroke-linecap: square"/>
     </g>
     <g id="line2d_48">
      <g>
       <use xlink:href="#md04d065601" x="756.755714" y="318.04" style="stroke: #000000; stroke-width: 0.6"/>
      </g>
     </g>
    </g>
    <g id="xtick_25">
     <g id="line2d_49">
      <path d="M 773.089648 318.04 
L 773.089648 37.968 
" clip-path="url(#pd42ac94385)" style="fill: none; stroke: #1a1a1a; stroke-width: 0.3; stroke-linecap: square"/>
     </g>
     <g id="line2d_50">
      <g>
       <use xlink:href="#md04d065601" x="773.089648" y="318.04" style="stroke: #000000; stroke-width: 0.6"/>
      </g>
     </g>
    </g>
    <g id="text_10">
     <!-- Frequency (Hz) -->
     <g style="fill: #8e8e93" transform="translate(410.730313 346.316563) scale(0.1 -0.1)">
      <defs>
       <path id="DejaVuSans-46" d="M 628 4666 
L 3309 4666 
L 3309 4134 
L 1259 4134 
L 1259 2759 
L 3109 2759 
L 3109 2228 
L 1259 2228 
L 1259 0 
L 628 0 
L 628 4666 
z
" transform="scale(0.015625)"/>
       <path id="DejaVuSans-72" d="M 2631 2963 
Q 2534 3019 2420 3045 
Q 2306 3072 2169 3072 
Q 1681 3072 1420 2755 
Q 1159 2438 1159 1844 
L 1159 0 
L 581 0 
L 581 3500 
L 1159 3500 
L 1159 2956 
Q 1341 3275 1631 3429 
Q 1922 3584 2338 3584 
Q 2397 3584 2469 3576 
Q 2541 3569 2628 3553 
L 2631 2963 
z
" transform="scale(0.015625)"/>
       <path id="DejaVuSans-65" d="M 3597 1894 
L 3597 1613 
L 953 1613 
Q 991 1019 1311 708 
Q 1631 397 2203 397 
Q 2534 397 2845 478 
Q 3156 559 3463 722 
L 3463 178 
Q 3153 47 2828 -22 
Q 2503 -91 2169 -91 
Q 1331 -91 842 396 
Q 353 884 353 1716 
Q 353 2575 817 3079 
Q 1281 3584 2069 3584 
Q 2775 3584 3186 3129 
Q 3597 2675 3597 1894 
z
M 3022 2063 
Q 3016 2534 2758 2815 
Q 2500 3097 2075 3097 
Q 1594 3097 1305 2825 
Q 1016 2553 972 2059 
L 3022 2063 
z
" transform="scale(0.015625)"/>
       <path id="DejaVuSans-71" d="M 947 1747 
Q 947 1113 1208 752 
Q 1469 391 1925 391 
Q 2381 391 2643 752 
Q 2906 1113 2906 1747 
Q 2906 2381 2643 2742 
Q 2381 3103 1925 3103 
Q 1469 3103 1208 2742 
Q 947 2381 947 1747 
z
M 2906 525 
Q 2725 213 2448 61 
Q 2172 -91 1784 -91 
Q 1150 -91 751 415 
Q 353 922 353 1747 
Q 353 2572 751 3078 
Q 1150 3584 1784 3584 
Q 2172 3584 2448 3432 
Q 2725 3281 2906 2969 
L 2906 3500 
L 3481 3500 
L 3481 -1331 
L 2906 -1331 
L 2906 525 
z
" transform="scale(0.015625)"/>
       <path id="DejaVuSans-75" d="M 544 1381 
L 544 3500 
L 1119 3500 
L 1119 1403 
Q 1119 906 1312 657 
Q 1506 409 1894 409 
Q 2359 409 2629 706 
Q 2900 1003 2900 1516 
L 2900 3500 
L 3475 3500 
L 3475 0 
L 2900 0 
L 2900 538 
Q 2691 219 2414 64 
Q 2138 -91 1772 -91 
Q 1169 -91 856 284 
Q 544 659 544 1381 
z
M 1991 3584 
L 1991 3584 
z
" transform="scale(0.015625)"/>
       <path id="DejaVuSans-6e" d="M 3513 2113 
L 3513 0 
L 2938 0 
L 2938 2094 
Q 2938 2591 2744 2837 
Q 2550 3084 2163 3084 
Q 1697 3084 1428 2787 
Q 1159 2491 1159 1978 
L 1159 0 
L 581 0 
L 581 3500 
L 1159 3500 
L 1159 2956 
Q 1366 3272 1645 3428 
Q 1925 3584 2291 3584 
Q 2894 3584 3203 3211 
Q 3513 2838 3513 2113 
z
" transform="scale(0.015625)"/>
       <path id="DejaVuSans-63" d="M 3122 3366 
L 3122 2828 
Q 2878 2963 2633 3030 
Q 2388 3097 2138 3097 
Q 1578 3097 1268 2742 
Q 959 2388 959 1747 
Q 959 1106 1268 751 
Q 1578 397 2138 397 
Q 2388 397 2633 464 
Q 2878 531 3122 666 
L 3122 134 
Q 2881 22 2623 -34 
Q 2366 -91 2075 -91 
Q 1284 -91 818 406 
Q 353 903 353 1747 
Q 353 2603 823 3093 
Q 1294 3584 2113 3584 
Q 2378 3584 2631 3529 
Q 2884 3475 3122 3366 
z
" transform="scale(0.015625)"/>
       <path id="DejaVuSans-79" d="M 2059 -325 
Q 1816 -950 1584 -1140 
Q 1353 -1331 966 -1331 
L 506 -1331 
L 506 -850 
L 844 -850 
Q 1081 -850 1212 -737 
Q 1344 -625 1503 -206 
L 1606 56 
L 191 3500 
L 800 3500 
L 1894 763 
L 2988 3500 
L 3597 3500 
L 2059 -325 
z
" transform="scale(0.015625)"/>
       <path id="DejaVuSans-20" transform="scale(0.015625)"/>
       <path id="DejaVuSans-28" d="M 1984 4856 
Q 1566 4138 1362 3434 
Q 1159 2731 1159 2009 
Q 1159 1288 1364 580 
Q 1569 -128 1984 -844 
L 1484 -844 
Q 1016 -109 783 600 
Q 550 1309 550 2009 
Q 550 2706 781 3412 
Q 1013 4119 1484 4856 
L 1984 4856 
z
" transform="scale(0.015625)"/>
       <path id="DejaVuSans-48" d="M 628 4666 
L 1259 4666 
L 1259 2753 
L 3553 2753 
L 3553 4666 
L 4184 4666 
L 4184 0 
L 3553 0 
L 3553 2222 
L 1259 2222 
L 1259 0 
L 628 0 
L 628 4666 
z
" transform="scale(0.015625)"/>
       <path id="DejaVuSans-7a" d="M 353 3500 
L 3084 3500 
L 3084 2975 
L 922 459 
L 3084 459 
L 3084 0 
L 275 0 
L 275 525 
L 2438 3041 
L 353 3041 
L 353 3500 
z
" transform="scale(0.015625)"/>
       <path id="DejaVuSans-29" d="M 513 4856 
L 1013 4856 
Q 1481 4119 1714 3412 
Q 1947 2706 1947 2009 
Q 1947 1309 1714 600 
Q 1481 -109 1013 -844 
L 513 -844 
Q 928 -128 1133 580 
Q 1338 1288 1338 2009 
Q 1338 2731 1133 3434 
Q 928 4138 513 4856 
z
" transform="scale(0.015625)"/>
      </defs>
      <use xlink:href="#DejaVuSans-46"/>
      <use xlink:href="#DejaVuSans-72" transform="translate(50.269531 0)"/>
      <use xlink:href="#DejaVuSans-65" transform="translate(89.132812 0)"/>
      <use xlink:href="#DejaVuSans-71" transform="translate(150.65625 0)"/>
      <use xlink:href="#DejaVuSans-75" transform="translate(214.132812 0)"/>
      <use xlink:href="#DejaVuSans-65" transform="translate(277.511719 0)"/>
      <use xlink:href="#DejaVuSans-6e" transform="translate(339.035156 0)"/>
      <use xlink:href="#DejaVuSans-63" transform="translate(402.414062 0)"/>
      <use xlink:href="#DejaVuSans-79" transform="translate(457.394531 0)"/>
      <use xlink:href="#DejaVuSans-20" transform="translate(516.574219 0)"/>
      <use xlink:href="#DejaVuSans-28" transform="translate(548.361328 0)"/>
      <use xlink:href="#DejaVuSans-48" transform="translate(587.375 0)"/>
      <use xlink:href="#DejaVuSans-7a" transform="translate(662.570312 0)"/>
      <use xlink:href="#DejaVuSans-29" transform="translate(715.060547 0)"/>
     </g>
    </g>
   </g>
   <g id="matplotlib.axis_2">
    <g id="ytick_1">
     <g id="line2d_51">
      <path d="M 52.94 292.578909 
L 843.93 292.578909 
" clip-path="url(#pd42ac94385)" style="fill: none; stroke: #2c2c2e; stroke-width: 0.5; stroke-linecap: square"/>
     </g>
     <g id="line2d_52">
      <defs>
       <path id="me2ae115e11" d="M 0 0 
L -3.5 0 
" style="stroke: #8e8e93; stroke-width: 0.8"/>
      </defs>
      <g>
       <use xlink:href="#me2ae115e11" x="52.94" y="292.578909" style="fill: #8e8e93; stroke: #8e8e93; stroke-width: 0.8"/>
      </g>
     </g>
     <g id="text_11">
      <!-- −30 -->
      <g style="fill: #8e8e93" transform="translate(24.835313 296.378128) scale(0.1 -0.1)">
       <defs>
        <path id="DejaVuSans-2212" d="M 678 2272 
L 4684 2272 
L 4684 1741 
L 678 1741 
L 678 2272 
z
" transform="scale(0.015625)"/>
        <path id="DejaVuSans-33" d="M 2597 2516 
Q 3050 2419 3304 2112 
Q 3559 1806 3559 1356 
Q 3559 666 3084 287 
Q 2609 -91 1734 -91 
Q 1441 -91 1130 -33 
Q 819 25 488 141 
L 488 750 
Q 750 597 1062 519 
Q 1375 441 1716 441 
Q 2309 441 2620 675 
Q 2931 909 2931 1356 
Q 2931 1769 2642 2001 
Q 2353 2234 1838 2234 
L 1294 2234 
L 1294 2753 
L 1863 2753 
Q 2328 2753 2575 2939 
Q 2822 3125 2822 3475 
Q 2822 3834 2567 4026 
Q 2313 4219 1838 4219 
Q 1578 4219 1281 4162 
Q 984 4106 628 3988 
L 628 4550 
Q 988 4650 1302 4700 
Q 1616 4750 1894 4750 
Q 2613 4750 3031 4423 
Q 3450 4097 3450 3541 
Q 3450 3153 3228 2886 
Q 3006 2619 2597 2516 
z
" transform="scale(0.015625)"/>
       </defs>
       <use xlink:href="#DejaVuSans-2212"/>
       <use xlink:href="#DejaVuSans-33" transform="translate(83.789062 0)"/>
       <use xlink:href="#DejaVuSans-30" transform="translate(147.412109 0)"/>
      </g>
     </g>
    </g>
    <g id="ytick_2">
     <g id="line2d_53">
      <path d="M 52.94 241.656727 
L 843.93 241.656727 
" clip-path="url(#pd42ac94385)" style="fill: none; stroke: #2c2c2e; stroke-width: 0.5; stroke-linecap: square"/>
     </g>
     <g id="line2d_54">
      <g>
       <use xlink:href="#me2ae115e11" x="52.94" y="241.656727" style="fill: #8e8e93; stroke: #8e8e93; stroke-width: 0.8"/>
      </g>
     </g>
     <g id="text_12">
      <!-- −20 -->
      <g style="fill: #8e8e93" transform="translate(24.835313 245.455946) scale(0.1 -0.1)">
       <use xlink:href="#DejaVuSans-2212"/>
       <use xlink:href="#DejaVuSans-32" transform="translate(83.789062 0)"/>
       <use xlink:href="#DejaVuSans-30" transform="translate(147.412109 0)"/>
      </g>
     </g>
    </g>
    <g id="ytick_3">
     <g id="line2d_55">
      <path d="M 52.94 190.734545 
L 843.93 190.734545 
" clip-path="url(#pd42ac94385)" style="fill: none; stroke: #2c2c2e; stroke-width: 0.5; stroke-linecap: square"/>
     </g>
     <g id="line2d_56">
      <g>
       <use xlink:href="#me2ae115e11" x="52.94" y="190.734545" style="fill: #8e8e93; stroke: #8e8e93; stroke-width: 0.8"/>
      </g>
     </g>
     <g id="text_13">
      <!-- −10 -->
      <g style="fill: #8e8e93" transform="translate(24.835313 194.533764) scale(0.1 -0.1)">
       <use xlink:href="#DejaVuSans-2212"/>
       <use xlink:href="#DejaVuSans-31" transform="translate(83.789062 0)"/>
       <use xlink:href="#DejaVuSans-30" transform="translate(147.412109 0)"/>
      </g>
     </g>
    </g>
    <g id="ytick_4">
     <g id="line2d_57">
      <path d="M 52.94 139.812364 
L 843.93 139.812364 
" clip-path="url(#pd42ac94385)" style="fill: none; stroke: #2c2c2e; stroke-width: 0.5; stroke-linecap: square"/>
     </g>
     <g id="line2d_58">
      <g>
       <use xlink:href="#me2ae115e11" x="52.94" y="139.812364" style="fill: #8e8e93; stroke: #8e8e93; stroke-width: 0.8"/>
      </g>
     </g>
     <g id="text_14">
      <!-- 0 -->
      <g style="fill: #8e8e93" transform="translate(39.5775 143.611582) scale(0.1 -0.1)">
       <use xlink:href="#DejaVuSans-30"/>
      </g>
     </g>
    </g>
    <g id="ytick_5">
     <g id="line2d_59">
      <path d="M 52.94 88.890182 
L 843.93 88.890182 
" clip-path="url(#pd42ac94385)" style="fill: none; stroke: #2c2c2e; stroke-width: 0.5; stroke-linecap: square"/>
     </g>
     <g id="line2d_60">
      <g>
       <use xlink:href="#me2ae115e11" x="52.94" y="88.890182" style="fill: #8e8e93; stroke: #8e8e93; stroke-width: 0.8"/>
      </g>
     </g>
     <g id="text_15">
      <!-- 10 -->
      <g style="fill: #8e8e93" transform="translate(33.215 92.689401) scale(0.1 -0.1)">
       <use xlink:href="#DejaVuSans-31"/>
       <use xlink:href="#DejaVuSans-30" transform="translate(63.623047 0)"/>
      </g>
     </g>
    </g>
    <g id="ytick_6">
     <g id="line2d_61">
      <path d="M 52.94 37.968 
L 843.93 37.968 
" clip-path="url(#pd42ac94385)" style="fill: none; stroke: #2c2c2e; stroke-width: 0.5; stroke-linecap: square"/>
     </g>
     <g id="line2d_62">
      <g>
       <use xlink:href="#me2ae115e11" x="52.94" y="37.968" style="fill: #8e8e93; stroke: #8e8e93; stroke-width: 0.8"/>
      </g>
     </g>
     <g id="text_16">
      <!-- 20 -->
      <g style="fill: #8e8e93" transform="translate(33.215 41.767219) scale(0.1 -0.1)">
       <use xlink:href="#DejaVuSans-32"/>
       <use xlink:href="#DejaVuSans-30" transform="translate(63.623047 0)"/>
      </g>
     </g>
    </g>
    <g id="text_17">
     <!-- Level (dB, rel. 1 kHz) -->
     <g style="fill: #8e8e93" transform="translate(18.755625 230.114156) rotate(-90) scale(0.1 -0.1)">
      <defs>
       <path id="DejaVuSans-4c" d="M 628 4666 
L 1259 4666 
L 1259 531 
L 3531 531 
L 3531 0 
L 628 0 
L 628 4666 
z
" transform="scale(0.015625)"/>
       <path id="DejaVuSans-76" d="M 191 3500 
L 800 3500 
L 1894 563 
L 2988 3500 
L 3597 3500 
L 2284 0 
L 1503 0 
L 191 3500 
z
" transform="scale(0.015625)"/>
       <path id="DejaVuSans-6c" d="M 603 4863 
L 1178 4863 
L 1178 0 
L 603 0 
L 603 4863 
z
" transform="scale(0.015625)"/>
       <path id="DejaVuSans-64" d="M 2906 2969 
L 2906 4863 
L 3481 4863 
L 3481 0 
L 2906 0 
L 2906 525 
Q 2725 213 2448 61 
Q 2172 -91 1784 -91 
Q 1150 -91 751 415 
Q 353 922 353 1747 
Q 353 2572 751 3078 
Q 1150 3584 1784 3584 
Q 2172 3584 2448 3432 
Q 2725 3281 2906 2969 
z
M 947 1747 
Q 947 1113 1208 752 
Q 1469 391 1925 391 
Q 2381 391 2643 752 
Q 2906 1113 2906 1747 
Q 2906 2381 2643 2742 
Q 2381 3103 1925 3103 
Q 1469 3103 1208 2742 
Q 947 2381 947 1747 
z
" transform="scale(0.015625)"/>
       <path id="DejaVuSans-42" d="M 1259 2228 
L 1259 519 
L 2272 519 
Q 2781 519 3026 730 
Q 3272 941 3272 1375 
Q 3272 1813 3026 2020 
Q 2781 2228 2272 2228 
L 1259 2228 
z
M 1259 4147 
L 1259 2741 
L 2194 2741 
Q 2656 2741 2882 2914 
Q 3109 3088 3109 3444 
Q 3109 3797 2882 3972 
Q 2656 4147 2194 4147 
L 1259 4147 
z
M 628 4666 
L 2241 4666 
Q 2963 4666 3353 4366 
Q 3744 4066 3744 3513 
Q 3744 3084 3544 2831 
Q 3344 2578 2956 2516 
Q 3422 2416 3680 2098 
Q 3938 1781 3938 1306 
Q 3938 681 3513 340 
Q 3088 0 2303 0 
L 628 0 
L 628 4666 
z
" transform="scale(0.015625)"/>
       <path id="DejaVuSans-2c" d="M 750 794 
L 1409 794 
L 1409 256 
L 897 -744 
L 494 -744 
L 750 256 
L 750 794 
z
" transform="scale(0.015625)"/>
       <path id="DejaVuSans-2e" d="M 684 794 
L 1344 794 
L 1344 0 
L 684 0 
L 684 794 
z
" transform="scale(0.015625)"/>
      </defs>
      <use xlink:href="#DejaVuSans-4c"/>
      <use xlink:href="#DejaVuSans-65" transform="translate(53.962891 0)"/>
      <use xlink:href="#DejaVuSans-76" transform="translate(115.486328 0)"/>
      <use xlink:href="#DejaVuSans-65" transform="translate(174.666016 0)"/>
      <use xlink:href="#DejaVuSans-6c" transform="translate(236.189453 0)"/>
      <use xlink:href="#DejaVuSans-20" transform="translate(263.972656 0)"/>
      <use xlink:href="#DejaVuSans-28" transform="translate(295.759766 0)"/>
      <use xlink:href="#DejaVuSans-64" transform="translate(334.773438 0)"/>
      <use xlink:href="#DejaVuSans-42" transform="translate(398.25 0)"/>
      <use xlink:href="#DejaVuSans-2c" transform="translate(466.853516 0)"/>
      <use xlink:href="#DejaVuSans-20" transform="translate(498.640625 0)"/>
      <use xlink:href="#DejaVuSans-72" transform="translate(530.427734 0)"/>
      <use xlink:href="#DejaVuSans-65" transform="translate(569.291016 0)"/>
      <use xlink:href="#DejaVuSans-6c" transform="translate(630.814453 0)"/>
      <use xlink:href="#DejaVuSans-2e" transform="translate(658.597656 0)"/>
      <use xlink:href="#DejaVuSans-20" transform="translate(690.384766 0)"/>
      <use xlink:href="#DejaVuSans-31" transform="translate(722.171875 0)"/>
      <use xlink:href="#DejaVuSans-20" transform="translate(785.794922 0)"/>
      <use xlink:href="#DejaVuSans-6b" transform="translate(817.582031 0)"/>
      <use xlink:href="#DejaVuSans-48" transform="translate(875.492188 0)"/>
      <use xlink:href="#DejaVuSans-7a" transform="translate(950.6875 0)"/>
      <use xlink:href="#DejaVuSans-29" transform="translate(1003.177734 0)"/>
     </g>
    </g>
   </g>
   <g id="line2d_63">
    <path d="M 61.569018 200.256993 
L 77.552113 235.021567 
L 93.506181 237.038085 
L 109.483132 169.999033 
L 125.445547 130.890797 
L 141.40994 127.188755 
L 157.380284 125.9157 
L 173.339306 129.714495 
L 189.309307 160.364556 
L 205.275028 180.606123 
L 221.24067 155.980156 
L 237.204183 155.73573 
L 253.171205 146.972022 
L 269.137345 101.992459 
L 285.101288 112.171803 
L 301.070758 95.65774 
L 317.035009 126.99525 
L 333.00132 133.070267 
L 348.967884 142.862602 
L 364.931691 170.024494 
L 380.900289 181.268112 
L 396.865708 193.372314 
L 412.830631 190.719269 
L 428.795838 150.429639 
L 444.762143 137.709278 
L 460.72818 148.026112 
L 476.694606 138.065733 
L 492.659874 135.448333 
L 508.62651 124.113055 
L 524.592343 110.313144 
L 540.558086 121.398903 
L 556.523893 151.865644 
L 572.4901 122.809447 
L 588.455585 105.00196 
L 604.421608 124.617185 
L 620.387608 138.218499 
L 636.353662 137.459759 
L 652.31956 111.15336 
L 668.285468 113.424489 
L 684.251393 99.110264 
L 700.217226 80.02463 
L 716.183252 66.20435 
L 732.149079 118.908808 
L 748.115001 144.609233 
L 764.080876 156.708344 
L 780.04686 189.227249 
L 796.012716 202.416094 
L 811.97858 190.403551 
L 827.944543 163.109262 
L 843.910399 135.265013 
" clip-path="url(#pd42ac94385)" style="fill: none; stroke: #007aff; stroke-width: 1.8; stroke-linecap: square"/>
   </g>
   <g id="line2d_64">
    <path d="M 52.94 139.812364 
L 843.93 139.812364 
" clip-path="url(#pd42ac94385)" style="fill: none; stroke-dasharray: 2.96,1.28; stroke-dashoffset: 0; stroke: #2c2c2e; stroke-width: 0.8"/>
   </g>
   <g id="line2d_65">
    <path d="M 52.94 155.089018 
L 843.93 155.089018 
" clip-path="url(#pd42ac94385)" style="fill: none; stroke-dasharray: 0.6,0.99; stroke-dashoffset: 0; stroke: #ff9500; stroke-width: 0.6"/>
   </g>
   <g id="line2d_66">
    <path d="M 52.94 124.535709 
L 843.93 124.535709 
" clip-path="url(#pd42ac94385)" style="fill: none; stroke-dasharray: 0.6,0.99; stroke-dashoffset: 0; stroke: #ff9500; stroke-width: 0.6"/>
   </g>
   <g id="patch_4">
    <path d="M 52.94 318.04 
L 52.94 37.968 
" style="fill: none; stroke: #2c2c2e; stroke-width: 0.8; stroke-linejoin: miter; stroke-linecap: square"/>
   </g>
   <g id="patch_5">
    <path d="M 843.93 318.04 
L 843.93 37.968 
" style="fill: none; stroke: #2c2c2e; stroke-width: 0.8; stroke-linejoin: miter; stroke-linecap: square"/>
   </g>
   <g id="patch_6">
    <path d="M 52.94 318.04 
L 843.93 318.04 
" style="fill: none; stroke: #2c2c2e; stroke-width: 0.8; stroke-linejoin: miter; stroke-linecap: square"/>
   </g>
   <g id="patch_7">
    <path d="M 52.94 37.968 
L 843.93 37.968 
" style="fill: none; stroke: #2c2c2e; stroke-width: 0.8; stroke-linejoin: miter; stroke-linecap: square"/>
   </g>
   <g id="text_18">
    <!-- Acoustic Response — Faital Pro 3FE25 / T3250W / 1L sealed -->
    <g style="fill: #e0e0e0" transform="translate(284.363125 19.650406) scale(0.11 -0.11)">
     <defs>
      <path id="DejaVuSans-41" d="M 2188 4044 
L 1331 1722 
L 3047 1722 
L 2188 4044 
z
M 1831 4666 
L 2547 4666 
L 4325 0 
L 3669 0 
L 3244 1197 
L 1141 1197 
L 716 0 
L 50 0 
L 1831 4666 
z
" transform="scale(0.015625)"/>
      <path id="DejaVuSans-6f" d="M 1959 3097 
Q 1497 3097 1228 2736 
Q 959 2375 959 1747 
Q 959 1119 1226 758 
Q 1494 397 1959 397 
Q 2419 397 2687 759 
Q 2956 1122 2956 1747 
Q 2956 2369 2687 2733 
Q 2419 3097 1959 3097 
z
M 1959 3584 
Q 2709 3584 3137 3096 
Q 3566 2609 3566 1747 
Q 3566 888 3137 398 
Q 2709 -91 1959 -91 
Q 1206 -91 779 398 
Q 353 888 353 1747 
Q 353 2609 779 3096 
Q 1206 3584 1959 3584 
z
" transform="scale(0.015625)"/>
      <path id="DejaVuSans-73" d="M 2834 3397 
L 2834 2853 
Q 2591 2978 2328 3040 
Q 2066 3103 1784 3103 
Q 1356 3103 1142 2972 
Q 928 2841 928 2578 
Q 928 2378 1081 2264 
Q 1234 2150 1697 2047 
L 1894 2003 
Q 2506 1872 2764 1633 
Q 3022 1394 3022 966 
Q 3022 478 2636 193 
Q 2250 -91 1575 -91 
Q 1294 -91 989 -36 
Q 684 19 347 128 
L 347 722 
Q 666 556 975 473 
Q 1284 391 1588 391 
Q 1994 391 2212 530 
Q 2431 669 2431 922 
Q 2431 1156 2273 1281 
Q 2116 1406 1581 1522 
L 1381 1569 
Q 847 1681 609 1914 
Q 372 2147 372 2553 
Q 372 3047 722 3315 
Q 1072 3584 1716 3584 
Q 2034 3584 2315 3537 
Q 2597 3491 2834 3397 
z
" transform="scale(0.015625)"/>
      <path id="DejaVuSans-74" d="M 1172 4494 
L 1172 3500 
L 2356 3500 
L 2356 3053 
L 1172 3053 
L 1172 1153 
Q 1172 725 1289 603 
Q 1406 481 1766 481 
L 2356 481 
L 2356 0 
L 1766 0 
Q 1100 0 847 248 
Q 594 497 594 1153 
L 594 3053 
L 172 3053 
L 172 3500 
L 594 3500 
L 594 4494 
L 1172 4494 
z
" transform="scale(0.015625)"/>
      <path id="DejaVuSans-69" d="M 603 3500 
L 1178 3500 
L 1178 0 
L 603 0 
L 603 3500 
z
M 603 4863 
L 1178 4863 
L 1178 4134 
L 603 4134 
L 603 4863 
z
" transform="scale(0.015625)"/>
      <path id="DejaVuSans-52" d="M 2841 2188 
Q 3044 2119 3236 1894 
Q 3428 1669 3622 1275 
L 4263 0 
L 3584 0 
L 2988 1197 
Q 2756 1666 2539 1819 
Q 2322 1972 1947 1972 
L 1259 1972 
L 1259 0 
L 628 0 
L 628 4666 
L 2053 4666 
Q 2853 4666 3247 4331 
Q 3641 3997 3641 3322 
Q 3641 2881 3436 2590 
Q 3231 2300 2841 2188 
z
M 1259 4147 
L 1259 2491 
L 2053 2491 
Q 2509 2491 2742 2702 
Q 2975 2913 2975 3322 
Q 2975 3731 2742 3939 
Q 2509 4147 2053 4147 
L 1259 4147 
z
" transform="scale(0.015625)"/>
      <path id="DejaVuSans-70" d="M 1159 525 
L 1159 -1331 
L 581 -1331 
L 581 3500 
L 1159 3500 
L 1159 2969 
Q 1341 3281 1617 3432 
Q 1894 3584 2278 3584 
Q 2916 3584 3314 3078 
Q 3713 2572 3713 1747 
Q 3713 922 3314 415 
Q 2916 -91 2278 -91 
Q 1894 -91 1617 61 
Q 1341 213 1159 525 
z
M 3116 1747 
Q 3116 2381 2855 2742 
Q 2594 3103 2138 3103 
Q 1681 3103 1420 2742 
Q 1159 2381 1159 1747 
Q 1159 1113 1420 752 
Q 1681 391 2138 391 
Q 2594 391 2855 752 
Q 3116 1113 3116 1747 
z
" transform="scale(0.015625)"/>
      <path id="DejaVuSans-2014" d="M 313 1978 
L 6088 1978 
L 6088 1528 
L 313 1528 
L 313 1978 
z
" transform="scale(0.015625)"/>
      <path id="DejaVuSans-61" d="M 2194 1759 
Q 1497 1759 1228 1600 
Q 959 1441 959 1056 
Q 959 750 1161 570 
Q 1363 391 1709 391 
Q 2188 391 2477 730 
Q 2766 1069 2766 1631 
L 2766 1759 
L 2194 1759 
z
M 3341 1997 
L 3341 0 
L 2766 0 
L 2766 531 
Q 2569 213 2275 61 
Q 1981 -91 1556 -91 
Q 1019 -91 701 211 
Q 384 513 384 1019 
Q 384 1609 779 1909 
Q 1175 2209 1959 2209 
L 2766 2209 
L 2766 2266 
Q 2766 2663 2505 2880 
Q 2244 3097 1772 3097 
Q 1472 3097 1187 3025 
Q 903 2953 641 2809 
L 641 3341 
Q 956 3463 1253 3523 
Q 1550 3584 1831 3584 
Q 2591 3584 2966 3190 
Q 3341 2797 3341 1997 
z
" transform="scale(0.015625)"/>
      <path id="DejaVuSans-50" d="M 1259 4147 
L 1259 2394 
L 2053 2394 
Q 2494 2394 2734 2622 
Q 2975 2850 2975 3272 
Q 2975 3691 2734 3919 
Q 2494 4147 2053 4147 
L 1259 4147 
z
M 628 4666 
L 2053 4666 
Q 2838 4666 3239 4311 
Q 3641 3956 3641 3272 
Q 3641 2581 3239 2228 
Q 2838 1875 2053 1875 
L 1259 1875 
L 1259 0 
L 628 0 
L 628 4666 
z
" transform="scale(0.015625)"/>
      <path id="DejaVuSans-45" d="M 628 4666 
L 3578 4666 
L 3578 4134 
L 1259 4134 
L 1259 2753 
L 3481 2753 
L 3481 2222 
L 1259 2222 
L 1259 531 
L 3634 531 
L 3634 0 
L 628 0 
L 628 4666 
z
" transform="scale(0.015625)"/>
      <path id="DejaVuSans-2f" d="M 1625 4666 
L 2156 4666 
L 531 -594 
L 0 -594 
L 1625 4666 
z
" transform="scale(0.015625)"/>
      <path id="DejaVuSans-54" d="M -19 4666 
L 3928 4666 
L 3928 4134 
L 2272 4134 
L 2272 0 
L 1638 0 
L 1638 4134 
L -19 4134 
L -19 4666 
z
" transform="scale(0.015625)"/>
      <path id="DejaVuSans-57" d="M 213 4666 
L 850 4666 
L 1831 722 
L 2809 4666 
L 3519 4666 
L 4500 722 
L 5478 4666 
L 6119 4666 
L 4947 0 
L 4153 0 
L 3169 4050 
L 2175 0 
L 1381 0 
L 213 4666 
z
" transform="scale(0.015625)"/>
     </defs>
     <use xlink:href="#DejaVuSans-41"/>
     <use xlink:href="#DejaVuSans-63" transform="translate(66.658203 0)"/>
     <use xlink:href="#DejaVuSans-6f" transform="translate(121.638672 0)"/>
     <use xlink:href="#DejaVuSans-75" transform="translate(182.820312 0)"/>
     <use xlink:href="#DejaVuSans-73" transform="translate(246.199219 0)"/>
     <use xlink:href="#DejaVuSans-74" transform="translate(298.298828 0)"/>
     <use xlink:href="#DejaVuSans-69" transform="translate(337.507812 0)"/>
     <use xlink:href="#DejaVuSans-63" transform="translate(365.291016 0)"/>
     <use xlink:href="#DejaVuSans-20" transform="translate(420.271484 0)"/>
     <use xlink:href="#DejaVuSans-52" transform="translate(452.058594 0)"/>
     <use xlink:href="#DejaVuSans-65" transform="translate(517.041016 0)"/>
     <use xlink:href="#DejaVuSans-73" transform="translate(578.564453 0)"/>
     <use xlink:href="#DejaVuSans-70" transform="translate(630.664062 0)"/>
     <use xlink:href="#DejaVuSans-6f" transform="translate(694.140625 0)"/>
     <use xlink:href="#DejaVuSans-6e" transform="translate(755.322266 0)"/>
     <use xlink:href="#DejaVuSans-73" transform="translate(818.701172 0)"/>
     <use xlink:href="#DejaVuSans-65" transform="translate(870.800781 0)"/>
     <use xlink:href="#DejaVuSans-20" transform="translate(932.324219 0)"/>
     <use xlink:href="#DejaVuSans-2014" transform="translate(964.111328 0)"/>
     <use xlink:href="#DejaVuSans-20" transform="translate(1064.111328 0)"/>
     <use xlink:href="#DejaVuSans-46" transform="translate(1095.898438 0)"/>
     <use xlink:href="#DejaVuSans-61" transform="translate(1144.292969 0)"/>
     <use xlink:href="#DejaVuSans-69" transform="translate(1205.572266 0)"/>
     <use xlink:href="#DejaVuSans-74" transform="translate(1233.355469 0)"/>
     <use xlink:href="#DejaVuSans-61" transform="translate(1272.564453 0)"/>
     <use xlink:href="#DejaVuSans-6c" transform="translate(1333.84375 0)"/>
     <use xlink:href="#DejaVuSans-20" transform="translate(1361.626953 0)"/>
     <use xlink:href="#DejaVuSans-50" transform="translate(1393.414062 0)"/>
     <use xlink:href="#DejaVuSans-72" transform="translate(1451.966797 0)"/>
     <use xlink:href="#DejaVuSans-6f" transform="translate(1490.830078 0)"/>
     <use xlink:href="#DejaVuSans-20" transform="translate(1552.011719 0)"/>
     <use xlink:href="#DejaVuSans-33" transform="translate(1583.798828 0)"/>
     <use xlink:href="#DejaVuSans-46" transform="translate(1647.421875 0)"/>
     <use xlink:href="#DejaVuSans-45" transform="translate(1704.941406 0)"/>
     <use xlink:href="#DejaVuSans-32" transform="translate(1768.125 0)"/>
     <use xlink:href="#DejaVuSans-35" transform="translate(1831.748047 0)"/>
     <use xlink:href="#DejaVuSans-20" transform="translate(1895.371094 0)"/>
     <use xlink:href="#DejaVuSans-2f" transform="translate(1927.158203 0)"/>
     <use xlink:href="#DejaVuSans-20" transform="translate(1960.849609 0)"/>
     <use xlink:href="#DejaVuSans-54" transform="translate(1992.636719 0)"/>
     <use xlink:href="#DejaVuSans-33" transform="translate(2053.720703 0)"/>
     <use xlink:href="#DejaVuSans-32" transform="translate(2117.34375 0)"/>
     <use xlink:href="#DejaVuSans-35" transform="translate(2180.966797 0)"/>
     <use xlink:href="#DejaVuSans-30" transform="translate(2244.589844 0)"/>
     <use xlink:href="#DejaVuSans-57" transform="translate(2308.212891 0)"/>
     <use xlink:href="#DejaVuSans-20" transform="translate(2407.089844 0)"/>
     <use xlink:href="#DejaVuSans-2f" transform="translate(2438.876953 0)"/>
     <use xlink:href="#DejaVuSans-20" transform="translate(2472.568359 0)"/>
     <use xlink:href="#DejaVuSans-31" transform="translate(2504.355469 0)"/>
     <use xlink:href="#DejaVuSans-4c" transform="translate(2567.978516 0)"/>
     <use xlink:href="#DejaVuSans-20" transform="translate(2623.691406 0)"/>
     <use xlink:href="#DejaVuSans-73" transform="translate(2655.478516 0)"/>
     <use xlink:href="#DejaVuSans-65" transform="translate(2707.578125 0)"/>
     <use xlink:href="#DejaVuSans-61" transform="translate(2769.101562 0)"/>
     <use xlink:href="#DejaVuSans-6c" transform="translate(2830.380859 0)"/>
     <use xlink:href="#DejaVuSans-65" transform="translate(2858.164062 0)"/>
     <use xlink:href="#DejaVuSans-64" transform="translate(2919.6875 0)"/>
    </g>
    <!-- 25cm on-axis, SF-666 mic, 2026-03-18 -->
    <g style="fill: #e0e0e0" transform="translate(341.702344 31.968) scale(0.11 -0.11)">
     <defs>
      <path id="DejaVuSans-6d" d="M 3328 2828 
Q 3544 3216 3844 3400 
Q 4144 3584 4550 3584 
Q 5097 3584 5394 3201 
Q 5691 2819 5691 2113 
L 5691 0 
L 5113 0 
L 5113 2094 
Q 5113 2597 4934 2840 
Q 4756 3084 4391 3084 
Q 3944 3084 3684 2787 
Q 3425 2491 3425 1978 
L 3425 0 
L 2847 0 
L 2847 2094 
Q 2847 2600 2669 2842 
Q 2491 3084 2119 3084 
Q 1678 3084 1418 2786 
Q 1159 2488 1159 1978 
L 1159 0 
L 581 0 
L 581 3500 
L 1159 3500 
L 1159 2956 
Q 1356 3278 1631 3431 
Q 1906 3584 2284 3584 
Q 2666 3584 2933 3390 
Q 3200 3197 3328 2828 
z
" transform="scale(0.015625)"/>
      <path id="DejaVuSans-2d" d="M 313 2009 
L 1997 2009 
L 1997 1497 
L 313 1497 
L 313 2009 
z
" transform="scale(0.015625)"/>
      <path id="DejaVuSans-78" d="M 3513 3500 
L 2247 1797 
L 3578 0 
L 2900 0 
L 1881 1375 
L 863 0 
L 184 0 
L 1544 1831 
L 300 3500 
L 978 3500 
L 1906 2253 
L 2834 3500 
L 3513 3500 
z
" transform="scale(0.015625)"/>
      <path id="DejaVuSans-53" d="M 3425 4513 
L 3425 3897 
Q 3066 4069 2747 4153 
Q 2428 4238 2131 4238 
Q 1616 4238 1336 4038 
Q 1056 3838 1056 3469 
Q 1056 3159 1242 3001 
Q 1428 2844 1947 2747 
L 2328 2669 
Q 3034 2534 3370 2195 
Q 3706 1856 3706 1288 
Q 3706 609 3251 259 
Q 2797 -91 1919 -91 
Q 1588 -91 1214 -16 
Q 841 59 441 206 
L 441 856 
Q 825 641 1194 531 
Q 1563 422 1919 422 
Q 2459 422 2753 634 
Q 3047 847 3047 1241 
Q 3047 1584 2836 1778 
Q 2625 1972 2144 2069 
L 1759 2144 
Q 1053 2284 737 2584 
Q 422 2884 422 3419 
Q 422 4038 858 4394 
Q 1294 4750 2059 4750 
Q 2388 4750 2728 4690 
Q 3069 4631 3425 4513 
z
" transform="scale(0.015625)"/>
      <path id="DejaVuSans-36" d="M 2113 2584 
Q 1688 2584 1439 2293 
Q 1191 2003 1191 1497 
Q 1191 994 1439 701 
Q 1688 409 2113 409 
Q 2538 409 2786 701 
Q 3034 994 3034 1497 
Q 3034 2003 2786 2293 
Q 2538 2584 2113 2584 
z
M 3366 4563 
L 3366 3988 
Q 3128 4100 2886 4159 
Q 2644 4219 2406 4219 
Q 1781 4219 1451 3797 
Q 1122 3375 1075 2522 
Q 1259 2794 1537 2939 
Q 1816 3084 2150 3084 
Q 2853 3084 3261 2657 
Q 3669 2231 3669 1497 
Q 3669 778 3244 343 
Q 2819 -91 2113 -91 
Q 1303 -91 875 529 
Q 447 1150 447 2328 
Q 447 3434 972 4092 
Q 1497 4750 2381 4750 
Q 2619 4750 2861 4703 
Q 3103 4656 3366 4563 
z
" transform="scale(0.015625)"/>
      <path id="DejaVuSans-38" d="M 2034 2216 
Q 1584 2216 1326 1975 
Q 1069 1734 1069 1313 
Q 1069 891 1326 650 
Q 1584 409 2034 409 
Q 2484 409 2743 651 
Q 3003 894 3003 1313 
Q 3003 1734 2745 1975 
Q 2488 2216 2034 2216 
z
M 1403 2484 
Q 997 2584 770 2862 
Q 544 3141 544 3541 
Q 544 4100 942 4425 
Q 1341 4750 2034 4750 
Q 2731 4750 3128 4425 
Q 3525 4100 3525 3541 
Q 3525 3141 3298 2862 
Q 3072 2584 2669 2484 
Q 3125 2378 3379 2068 
Q 3634 1759 3634 1313 
Q 3634 634 3220 271 
Q 2806 -91 2034 -91 
Q 1263 -91 848 271 
Q 434 634 434 1313 
Q 434 1759 690 2068 
Q 947 2378 1403 2484 
z
M 1172 3481 
Q 1172 3119 1398 2916 
Q 1625 2713 2034 2713 
Q 2441 2713 2670 2916 
Q 2900 3119 2900 3481 
Q 2900 3844 2670 4047 
Q 2441 4250 2034 4250 
Q 1625 4250 1398 4047 
Q 1172 3844 1172 3481 
z
" transform="scale(0.015625)"/>
     </defs>
     <use xlink:href="#DejaVuSans-32"/>
     <use xlink:href="#DejaVuSans-35" transform="translate(63.623047 0)"/>
     <use xlink:href="#DejaVuSans-63" transform="translate(127.246094 0)"/>
     <use xlink:href="#DejaVuSans-6d" transform="translate(182.226562 0)"/>
     <use xlink:href="#DejaVuSans-20" transform="translate(279.638672 0)"/>
     <use xlink:href="#DejaVuSans-6f" transform="translate(311.425781 0)"/>
     <use xlink:href="#DejaVuSans-6e" transform="translate(372.607422 0)"/>
     <use xlink:href="#DejaVuSans-2d" transform="translate(435.986328 0)"/>
     <use xlink:href="#DejaVuSans-61" transform="translate(472.070312 0)"/>
     <use xlink:href="#DejaVuSans-78" transform="translate(533.349609 0)"/>
     <use xlink:href="#DejaVuSans-69" transform="translate(592.529297 0)"/>
     <use xlink:href="#DejaVuSans-73" transform="translate(620.3125 0)"/>
     <use xlink:href="#DejaVuSans-2c" transform="translate(672.412109 0)"/>
     <use xlink:href="#DejaVuSans-20" transform="translate(704.199219 0)"/>
     <use xlink:href="#DejaVuSans-53" transform="translate(735.986328 0)"/>
     <use xlink:href="#DejaVuSans-46" transform="translate(799.462891 0)"/>
     <use xlink:href="#DejaVuSans-2d" transform="translate(856.982422 0)"/>
     <use xlink:href="#DejaVuSans-36" transform="translate(893.066406 0)"/>
     <use xlink:href="#DejaVuSans-36" transform="translate(956.689453 0)"/>
     <use xlink:href="#DejaVuSans-36" transform="translate(1020.3125 0)"/>
     <use xlink:href="#DejaVuSans-20" transform="translate(1083.935547 0)"/>
     <use xlink:href="#DejaVuSans-6d" transform="translate(1115.722656 0)"/>
     <use xlink:href="#DejaVuSans-69" transform="translate(1213.134766 0)"/>
     <use xlink:href="#DejaVuSans-63" transform="translate(1240.917969 0)"/>
     <use xlink:href="#DejaVuSans-2c" transform="translate(1295.898438 0)"/>
     <use xlink:href="#DejaVuSans-20" transform="translate(1327.685547 0)"/>
     <use xlink:href="#DejaVuSans-32" transform="translate(1359.472656 0)"/>
     <use xlink:href="#DejaVuSans-30" transform="translate(1423.095703 0)"/>
     <use xlink:href="#DejaVuSans-32" transform="translate(1486.71875 0)"/>
     <use xlink:href="#DejaVuSans-36" transform="translate(1550.341797 0)"/>
     <use xlink:href="#DejaVuSans-2d" transform="translate(1613.964844 0)"/>
     <use xlink:href="#DejaVuSans-30" transform="translate(1650.048828 0)"/>
     <use xlink:href="#DejaVuSans-33" transform="translate(1713.671875 0)"/>
     <use xlink:href="#DejaVuSans-2d" transform="translate(1777.294922 0)"/>
     <use xlink:href="#DejaVuSans-31" transform="translate(1813.378906 0)"/>
     <use xlink:href="#DejaVuSans-38" transform="translate(1877.001953 0)"/>
    </g>
   </g>
   <g id="legend_1">
    <g id="patch_8">
     <path d="M 734.108906 58.378312 
L 837.63 58.378312 
Q 839.43 58.378312 839.43 56.578312 
L 839.43 44.268 
Q 839.43 42.468 837.63 42.468 
L 734.108906 42.468 
Q 732.308906 42.468 732.308906 44.268 
L 732.308906 56.578312 
Q 732.308906 58.378312 734.108906 58.378312 
z
" style="fill: #161616; opacity: 0.8; stroke: #2c2c2e; stroke-linejoin: miter"/>
    </g>
    <g id="patch_9">
     <path d="M 735.908906 52.906594 
L 753.908906 52.906594 
L 753.908906 46.606594 
L 735.908906 46.606594 
z
" style="fill: #ff3b30; opacity: 0.08; stroke: #ff3b30; stroke-linejoin: miter"/>
    </g>
    <g id="text_19">
     <!-- crossover region -->
     <g style="fill: #8e8e93" transform="translate(761.108906 52.906594) scale(0.09 -0.09)">
      <defs>
       <path id="DejaVuSans-67" d="M 2906 1791 
Q 2906 2416 2648 2759 
Q 2391 3103 1925 3103 
Q 1463 3103 1205 2759 
Q 947 2416 947 1791 
Q 947 1169 1205 825 
Q 1463 481 1925 481 
Q 2391 481 2648 825 
Q 2906 1169 2906 1791 
z
M 3481 434 
Q 3481 -459 3084 -895 
Q 2688 -1331 1869 -1331 
Q 1566 -1331 1297 -1286 
Q 1028 -1241 775 -1147 
L 775 -588 
Q 1028 -725 1275 -790 
Q 1522 -856 1778 -856 
Q 2344 -856 2625 -561 
Q 2906 -266 2906 331 
L 2906 616 
Q 2728 306 2450 153 
Q 2172 0 1784 0 
Q 1141 0 747 490 
Q 353 981 353 1791 
Q 353 2603 747 3093 
Q 1141 3584 1784 3584 
Q 2172 3584 2450 3431 
Q 2728 3278 2906 2969 
L 2906 3500 
L 3481 3500 
L 3481 434 
z
" transform="scale(0.015625)"/>
      </defs>
      <use xlink:href="#DejaVuSans-63"/>
      <use xlink:href="#DejaVuSans-72" transform="translate(54.980469 0)"/>
      <use xlink:href="#DejaVuSans-6f" transform="translate(93.84375 0)"/>
      <use xlink:href="#DejaVuSans-73" transform="translate(155.025391 0)"/>
      <use xlink:href="#DejaVuSans-73" transform="translate(207.125 0)"/>
      <use xlink:href="#DejaVuSans-6f" transform="translate(259.224609 0)"/>
      <use xlink:href="#DejaVuSans-76" transform="translate(320.40625 0)"/>
      <use xlink:href="#DejaVuSans-65" transform="translate(379.585938 0)"/>
      <use xlink:href="#DejaVuSans-72" transform="translate(441.109375 0)"/>
      <use xlink:href="#DejaVuSans-20" transform="translate(482.222656 0)"/>
      <use xlink:href="#DejaVuSans-72" transform="translate(514.009766 0)"/>
      <use xlink:href="#DejaVuSans-65" transform="translate(552.873047 0)"/>
      <use xlink:href="#DejaVuSans-67" transform="translate(614.396484 0)"/>
      <use xlink:href="#DejaVuSans-69" transform="translate(677.873047 0)"/>
      <use xlink:href="#DejaVuSans-6f" transform="translate(705.65625 0)"/>
      <use xlink:href="#DejaVuSans-6e" transform="translate(766.837891 0)"/>
     </g>
    </g>
   </g>
  </g>
 </g>
 <defs>
  <clipPath id="pd42ac94385">
   <rect x="52.94" y="37.968" width="790.99" height="280.072"/>
  </clipPath>
 </defs>
</svg>
